<?xml version="1.0" encoding="UTF-8" standalone="no"?>
<!DOCTYPE svg PUBLIC "-//W3C//DTD SVG 1.1//EN"
 "http://www.w3.org/Graphics/SVG/1.1/DTD/svg11.dtd">
<!-- Generated by graphviz version 14.0.2 (20251019.1705)
 -->
<!-- Title: schema Pages: 1 -->
<svg width="638pt" height="3327pt"
 viewBox="0.00 0.00 638.00 3327.00" xmlns="http://www.w3.org/2000/svg" xmlns:xlink="http://www.w3.org/1999/xlink">
<g id="graph0" class="graph" transform="scale(1 1) rotate(0) translate(4 3323)">
<title>schema</title>
<polygon fill="white" stroke="none" points="-4,4 -4,-3323 634,-3323 634,4 -4,4"/>
<!-- active_alloc_sets -->
<g id="node1" class="node">
<title>active_alloc_sets</title>
<polygon fill="none" stroke="black" points="130.75,-36 22.5,-36 22.5,0 130.75,0 130.75,-36"/>
<text xml:space="preserve" text-anchor="middle" x="76.62" y="-12.95" font-family="Times New Roman,serif" font-size="14.00">active_alloc_sets</text>
</g>
<!-- active_periods -->
<g id="node2" class="node">
<title>active_periods</title>
<polygon fill="none" stroke="black" points="124,-90 29.25,-90 29.25,-54 124,-54 124,-90"/>
<text xml:space="preserve" text-anchor="middle" x="76.62" y="-66.95" font-family="Times New Roman,serif" font-size="14.00">active_periods</text>
</g>
<!-- active_scenarios -->
<g id="node3" class="node">
<title>active_scenarios</title>
<polygon fill="none" stroke="black" points="129.25,-144 24,-144 24,-108 129.25,-108 129.25,-144"/>
<text xml:space="preserve" text-anchor="middle" x="76.62" y="-120.95" font-family="Times New Roman,serif" font-size="14.00">active_scenarios</text>
</g>
<!-- activity_to_routing -->
<g id="node4" class="node">
<title>activity_to_routing</title>
<polygon fill="none" stroke="black" points="136.38,-198 16.88,-198 16.88,-162 136.38,-162 136.38,-198"/>
<text xml:space="preserve" text-anchor="middle" x="76.62" y="-174.95" font-family="Times New Roman,serif" font-size="14.00">activity_to_routing</text>
</g>
<!-- bom -->
<g id="node5" class="node">
<title>bom</title>
<polygon fill="none" stroke="black" points="103.62,-252 49.62,-252 49.62,-216 103.62,-216 103.62,-252"/>
<text xml:space="preserve" text-anchor="middle" x="76.62" y="-228.95" font-family="Times New Roman,serif" font-size="14.00">bom</text>
</g>
<!-- bom_components_stage -->
<g id="node6" class="node">
<title>bom_components_stage</title>
<polygon fill="none" stroke="black" points="150.62,-306 2.62,-306 2.62,-270 150.62,-270 150.62,-306"/>
<text xml:space="preserve" text-anchor="middle" x="76.62" y="-282.95" font-family="Times New Roman,serif" font-size="14.00">bom_components_stage</text>
</g>
<!-- bom_spec_components -->
<g id="node7" class="node">
<title>bom_spec_components</title>
<polygon fill="none" stroke="black" points="148.75,-360 4.5,-360 4.5,-324 148.75,-324 148.75,-360"/>
<text xml:space="preserve" text-anchor="middle" x="76.62" y="-336.95" font-family="Times New Roman,serif" font-size="14.00">bom_spec_components</text>
</g>
<!-- bom_specs -->
<g id="node8" class="node">
<title>bom_specs</title>
<polygon fill="none" stroke="black" points="115,-414 38.25,-414 38.25,-378 115,-378 115,-414"/>
<text xml:space="preserve" text-anchor="middle" x="76.62" y="-390.95" font-family="Times New Roman,serif" font-size="14.00">bom_specs</text>
</g>
<!-- bom_specs_stage -->
<g id="node9" class="node">
<title>bom_specs_stage</title>
<polygon fill="none" stroke="black" points="132.25,-468 21,-468 21,-432 132.25,-432 132.25,-468"/>
<text xml:space="preserve" text-anchor="middle" x="76.62" y="-444.95" font-family="Times New Roman,serif" font-size="14.00">bom_specs_stage</text>
</g>
<!-- commodity_map -->
<g id="node10" class="node">
<title>commodity_map</title>
<polygon fill="none" stroke="black" points="131.5,-522 21.75,-522 21.75,-486 131.5,-486 131.5,-522"/>
<text xml:space="preserve" text-anchor="middle" x="76.62" y="-498.95" font-family="Times New Roman,serif" font-size="14.00">commodity_map</text>
</g>
<!-- cost_allocations -->
<g id="node11" class="node">
<title>cost_allocations</title>
<polygon fill="none" stroke="black" points="128.12,-576 25.12,-576 25.12,-540 128.12,-540 128.12,-576"/>
<text xml:space="preserve" text-anchor="middle" x="76.62" y="-552.95" font-family="Times New Roman,serif" font-size="14.00">cost_allocations</text>
</g>
<!-- cost_rate_components -->
<g id="node12" class="node">
<title>cost_rate_components</title>
<polygon fill="none" stroke="black" points="145.38,-630 7.88,-630 7.88,-594 145.38,-594 145.38,-630"/>
<text xml:space="preserve" text-anchor="middle" x="76.62" y="-606.95" font-family="Times New Roman,serif" font-size="14.00">cost_rate_components</text>
</g>
<!-- cost_rates -->
<g id="node13" class="node">
<title>cost_rates</title>
<polygon fill="none" stroke="black" points="111.62,-684 41.62,-684 41.62,-648 111.62,-648 111.62,-684"/>
<text xml:space="preserve" text-anchor="middle" x="76.62" y="-660.95" font-family="Times New Roman,serif" font-size="14.00">cost_rates</text>
</g>
<!-- dep_cc_map -->
<g id="node14" class="node">
<title>dep_cc_map</title>
<polygon fill="none" stroke="black" points="119.12,-738 34.12,-738 34.12,-702 119.12,-702 119.12,-738"/>
<text xml:space="preserve" text-anchor="middle" x="76.62" y="-714.95" font-family="Times New Roman,serif" font-size="14.00">dep_cc_map</text>
</g>
<!-- driver_sets -->
<g id="node15" class="node">
<title>driver_sets</title>
<polygon fill="none" stroke="black" points="393.5,-819 318.25,-819 318.25,-783 393.5,-783 393.5,-819"/>
<text xml:space="preserve" text-anchor="middle" x="355.88" y="-795.95" font-family="Times New Roman,serif" font-size="14.00">driver_sets</text>
</g>
<!-- driver_values -->
<g id="node16" class="node">
<title>driver_values</title>
<polygon fill="none" stroke="black" points="121.38,-792 31.88,-792 31.88,-756 121.38,-756 121.38,-792"/>
<text xml:space="preserve" text-anchor="middle" x="76.62" y="-768.95" font-family="Times New Roman,serif" font-size="14.00">driver_values</text>
</g>
<!-- driver_values&#45;&gt;driver_sets -->
<g id="edge1" class="edge">
<title>driver_values&#45;&gt;driver_sets</title>
<path fill="none" stroke="black" d="M121.86,-778.31C172.32,-783.22 254.55,-791.23 306.62,-796.3"/>
<polygon fill="black" stroke="black" points="306.09,-799.77 316.39,-797.25 306.77,-792.8 306.09,-799.77"/>
<text xml:space="preserve" text-anchor="middle" x="218.5" y="-795.47" font-family="Times New Roman,serif" font-size="14.00">set_id</text>
</g>
<!-- drivers -->
<g id="node17" class="node">
<title>drivers</title>
<polygon fill="none" stroke="black" points="382.88,-765 328.88,-765 328.88,-729 382.88,-729 382.88,-765"/>
<text xml:space="preserve" text-anchor="middle" x="355.88" y="-741.95" font-family="Times New Roman,serif" font-size="14.00">drivers</text>
</g>
<!-- driver_values&#45;&gt;drivers -->
<g id="edge2" class="edge">
<title>driver_values&#45;&gt;drivers</title>
<path fill="none" stroke="black" d="M121.42,-768.89C137.13,-767.11 154.98,-765.14 171.25,-763.5 221.68,-758.41 279.99,-753.3 317.12,-750.15"/>
<polygon fill="black" stroke="black" points="317.22,-753.65 326.89,-749.32 316.63,-746.68 317.22,-753.65"/>
<text xml:space="preserve" text-anchor="middle" x="218.5" y="-766.7" font-family="Times New Roman,serif" font-size="14.00">driver_code</text>
</g>
<!-- elem_edges -->
<g id="node18" class="node">
<title>elem_edges</title>
<polygon fill="none" stroke="black" points="116.88,-1039 36.38,-1039 36.38,-1003 116.88,-1003 116.88,-1039"/>
<text xml:space="preserve" text-anchor="middle" x="76.62" y="-1015.95" font-family="Times New Roman,serif" font-size="14.00">elem_edges</text>
</g>
<!-- elem_nodes -->
<g id="node19" class="node">
<title>elem_nodes</title>
<polygon fill="none" stroke="black" points="396.5,-999 315.25,-999 315.25,-963 396.5,-963 396.5,-999"/>
<text xml:space="preserve" text-anchor="middle" x="355.88" y="-975.95" font-family="Times New Roman,serif" font-size="14.00">elem_nodes</text>
</g>
<!-- elem_edges&#45;&gt;elem_nodes -->
<g id="edge3" class="edge">
<title>elem_edges&#45;&gt;elem_nodes</title>
<path fill="none" stroke="black" d="M117.02,-1025C155.42,-1027.88 215.24,-1029.6 265.75,-1019 280.7,-1015.86 296.27,-1010.17 310.13,-1004.12"/>
<polygon fill="black" stroke="black" points="311.32,-1007.42 318.98,-1000.1 308.42,-1001.05 311.32,-1007.42"/>
<text xml:space="preserve" text-anchor="middle" x="218.5" y="-1030.39" font-family="Times New Roman,serif" font-size="14.00">child_id</text>
</g>
<!-- elem_edges&#45;&gt;elem_nodes -->
<g id="edge4" class="edge">
<title>elem_edges&#45;&gt;elem_nodes</title>
<path fill="none" stroke="black" d="M117.01,-1010.23C133.64,-1006.03 153.28,-1001.5 171.25,-998.5 215.57,-991.1 266.47,-986.55 303.42,-983.96"/>
<polygon fill="black" stroke="black" points="303.65,-987.45 313.39,-983.28 303.18,-980.47 303.65,-987.45"/>
<text xml:space="preserve" text-anchor="middle" x="218.5" y="-1001.7" font-family="Times New Roman,serif" font-size="14.00">parent_id</text>
</g>
<!-- elem_nodes&#45;&gt;elem_nodes -->
<g id="edge5" class="edge">
<title>elem_nodes&#45;&gt;elem_nodes</title>
<path fill="none" stroke="black" d="M334.14,-999.15C330.8,-1008.54 338.04,-1017 355.88,-1017 365.9,-1017 372.59,-1014.32 375.92,-1010.31"/>
<polygon fill="black" stroke="black" points="379.34,-1011.06 377.38,-1000.65 372.42,-1010.01 379.34,-1011.06"/>
<text xml:space="preserve" text-anchor="middle" x="355.88" y="-1020.2" font-family="Times New Roman,serif" font-size="14.00">parent_id</text>
</g>
<!-- elem_to_ovh -->
<g id="node20" class="node">
<title>elem_to_ovh</title>
<polygon fill="none" stroke="black" points="120.25,-1093 33,-1093 33,-1057 120.25,-1057 120.25,-1093"/>
<text xml:space="preserve" text-anchor="middle" x="76.62" y="-1069.95" font-family="Times New Roman,serif" font-size="14.00">elem_to_ovh</text>
</g>
<!-- fact_measures -->
<g id="node21" class="node">
<title>fact_measures</title>
<polygon fill="none" stroke="black" points="123.62,-1147 29.62,-1147 29.62,-1111 123.62,-1111 123.62,-1147"/>
<text xml:space="preserve" text-anchor="middle" x="76.62" y="-1123.95" font-family="Times New Roman,serif" font-size="14.00">fact_measures</text>
</g>
<!-- item_nodes -->
<g id="node22" class="node">
<title>item_nodes</title>
<polygon fill="none" stroke="black" points="116.12,-1201 37.12,-1201 37.12,-1165 116.12,-1165 116.12,-1201"/>
<text xml:space="preserve" text-anchor="middle" x="76.62" y="-1177.95" font-family="Times New Roman,serif" font-size="14.00">item_nodes</text>
</g>
<!-- items -->
<g id="node23" class="node">
<title>items</title>
<polygon fill="none" stroke="black" points="103.62,-1255 49.62,-1255 49.62,-1219 103.62,-1219 103.62,-1255"/>
<text xml:space="preserve" text-anchor="middle" x="76.62" y="-1231.95" font-family="Times New Roman,serif" font-size="14.00">items</text>
</g>
<!-- labor_cost_unit -->
<g id="node24" class="node">
<title>labor_cost_unit</title>
<polygon fill="none" stroke="black" points="126.62,-1309 26.62,-1309 26.62,-1273 126.62,-1273 126.62,-1309"/>
<text xml:space="preserve" text-anchor="middle" x="76.62" y="-1285.95" font-family="Times New Roman,serif" font-size="14.00">labor_cost_unit</text>
</g>
<!-- labor_cost_unit_total -->
<g id="node25" class="node">
<title>labor_cost_unit_total</title>
<polygon fill="none" stroke="black" points="142,-1363 11.25,-1363 11.25,-1327 142,-1327 142,-1363"/>
<text xml:space="preserve" text-anchor="middle" x="76.62" y="-1339.95" font-family="Times New Roman,serif" font-size="14.00">labor_cost_unit_total</text>
</g>
<!-- labor_hours_unit -->
<g id="node26" class="node">
<title>labor_hours_unit</title>
<polygon fill="none" stroke="black" points="130.75,-1417 22.5,-1417 22.5,-1381 130.75,-1381 130.75,-1417"/>
<text xml:space="preserve" text-anchor="middle" x="76.62" y="-1393.95" font-family="Times New Roman,serif" font-size="14.00">labor_hours_unit</text>
</g>
<!-- labor_hours_unit_total -->
<g id="node27" class="node">
<title>labor_hours_unit_total</title>
<polygon fill="none" stroke="black" points="146.12,-1471 7.12,-1471 7.12,-1435 146.12,-1435 146.12,-1471"/>
<text xml:space="preserve" text-anchor="middle" x="76.62" y="-1447.95" font-family="Times New Roman,serif" font-size="14.00">labor_hours_unit_total</text>
</g>
<!-- lineage_links -->
<g id="node28" class="node">
<title>lineage_links</title>
<polygon fill="none" stroke="black" points="120.62,-1525 32.62,-1525 32.62,-1489 120.62,-1489 120.62,-1525"/>
<text xml:space="preserve" text-anchor="middle" x="76.62" y="-1501.95" font-family="Times New Roman,serif" font-size="14.00">lineage_links</text>
</g>
<!-- mfc_cc_set_items -->
<g id="node29" class="node">
<title>mfc_cc_set_items</title>
<polygon fill="none" stroke="black" points="134.12,-1579 19.12,-1579 19.12,-1543 134.12,-1543 134.12,-1579"/>
<text xml:space="preserve" text-anchor="middle" x="76.62" y="-1555.95" font-family="Times New Roman,serif" font-size="14.00">mfc_cc_set_items</text>
</g>
<!-- mfc_cc_sets -->
<g id="node30" class="node">
<title>mfc_cc_sets</title>
<polygon fill="none" stroke="black" points="397.62,-1579 314.12,-1579 314.12,-1543 397.62,-1543 397.62,-1579"/>
<text xml:space="preserve" text-anchor="middle" x="355.88" y="-1555.95" font-family="Times New Roman,serif" font-size="14.00">mfc_cc_sets</text>
</g>
<!-- mfc_cc_set_items&#45;&gt;mfc_cc_sets -->
<g id="edge6" class="edge">
<title>mfc_cc_set_items&#45;&gt;mfc_cc_sets</title>
<path fill="none" stroke="black" d="M134.4,-1561C183.72,-1561 254.58,-1561 302.55,-1561"/>
<polygon fill="black" stroke="black" points="302.41,-1564.5 312.41,-1561 302.41,-1557.5 302.41,-1564.5"/>
<text xml:space="preserve" text-anchor="middle" x="218.5" y="-1564.2" font-family="Times New Roman,serif" font-size="14.00">set_id</text>
</g>
<!-- mfc_elem_set_items -->
<g id="node31" class="node">
<title>mfc_elem_set_items</title>
<polygon fill="none" stroke="black" points="141.62,-1633 11.62,-1633 11.62,-1597 141.62,-1597 141.62,-1633"/>
<text xml:space="preserve" text-anchor="middle" x="76.62" y="-1609.95" font-family="Times New Roman,serif" font-size="14.00">mfc_elem_set_items</text>
</g>
<!-- mfc_elem_sets -->
<g id="node32" class="node">
<title>mfc_elem_sets</title>
<polygon fill="none" stroke="black" points="405.12,-1633 306.62,-1633 306.62,-1597 405.12,-1597 405.12,-1633"/>
<text xml:space="preserve" text-anchor="middle" x="355.88" y="-1609.95" font-family="Times New Roman,serif" font-size="14.00">mfc_elem_sets</text>
</g>
<!-- mfc_elem_set_items&#45;&gt;mfc_elem_sets -->
<g id="edge7" class="edge">
<title>mfc_elem_set_items&#45;&gt;mfc_elem_sets</title>
<path fill="none" stroke="black" d="M141.93,-1615C188.14,-1615 249.98,-1615 295.12,-1615"/>
<polygon fill="black" stroke="black" points="294.99,-1618.5 304.99,-1615 294.99,-1611.5 294.99,-1618.5"/>
<text xml:space="preserve" text-anchor="middle" x="218.5" y="-1618.2" font-family="Times New Roman,serif" font-size="14.00">set_id</text>
</g>
<!-- mfc_report_defs -->
<g id="node33" class="node">
<title>mfc_report_defs</title>
<polygon fill="none" stroke="black" points="630,-1704 524,-1704 524,-1668 630,-1668 630,-1704"/>
<text xml:space="preserve" text-anchor="middle" x="577" y="-1680.95" font-family="Times New Roman,serif" font-size="14.00">mfc_report_defs</text>
</g>
<!-- mfc_report_line_rules -->
<g id="node34" class="node">
<title>mfc_report_line_rules</title>
<polygon fill="none" stroke="black" points="145,-1687 8.25,-1687 8.25,-1651 145,-1651 145,-1687"/>
<text xml:space="preserve" text-anchor="middle" x="76.62" y="-1663.95" font-family="Times New Roman,serif" font-size="14.00">mfc_report_line_rules</text>
</g>
<!-- mfc_report_lines -->
<g id="node35" class="node">
<title>mfc_report_lines</title>
<polygon fill="none" stroke="black" points="410.38,-1704 301.38,-1704 301.38,-1668 410.38,-1668 410.38,-1704"/>
<text xml:space="preserve" text-anchor="middle" x="355.88" y="-1680.95" font-family="Times New Roman,serif" font-size="14.00">mfc_report_lines</text>
</g>
<!-- mfc_report_line_rules&#45;&gt;mfc_report_lines -->
<g id="edge8" class="edge">
<title>mfc_report_line_rules&#45;&gt;mfc_report_lines</title>
<path fill="none" stroke="black" d="M145.32,-1677.64C154.03,-1678.55 162.85,-1679.37 171.25,-1680 210.57,-1682.95 254.73,-1684.45 289.9,-1685.21"/>
<polygon fill="black" stroke="black" points="289.4,-1688.7 299.46,-1685.4 289.54,-1681.7 289.4,-1688.7"/>
<text xml:space="preserve" text-anchor="middle" x="218.5" y="-1687.67" font-family="Times New Roman,serif" font-size="14.00">report_id</text>
</g>
<!-- mfc_report_line_rules&#45;&gt;mfc_report_lines -->
<g id="edge9" class="edge">
<title>mfc_report_line_rules&#45;&gt;mfc_report_lines</title>
<path fill="none" stroke="black" d="M145.4,-1659.24C181.33,-1655.66 226.11,-1653.73 265.75,-1659.5 274.08,-1660.71 282.72,-1662.53 291.18,-1664.66"/>
<polygon fill="black" stroke="black" points="290.16,-1668 300.72,-1667.21 291.97,-1661.24 290.16,-1668"/>
<text xml:space="preserve" text-anchor="middle" x="218.5" y="-1662.7" font-family="Times New Roman,serif" font-size="14.00">line_no</text>
</g>
<!-- mfc_report_lines&#45;&gt;mfc_report_defs -->
<g id="edge10" class="edge">
<title>mfc_report_lines&#45;&gt;mfc_report_defs</title>
<path fill="none" stroke="black" d="M410.76,-1686C441.59,-1686 480.44,-1686 512.72,-1686"/>
<polygon fill="black" stroke="black" points="512.32,-1689.5 522.32,-1686 512.32,-1682.5 512.32,-1689.5"/>
<text xml:space="preserve" text-anchor="middle" x="476" y="-1689.2" font-family="Times New Roman,serif" font-size="14.00">report_id</text>
</g>
<!-- mo_catalog -->
<g id="node36" class="node">
<title>mo_catalog</title>
<polygon fill="none" stroke="black" points="116.5,-1741 36.75,-1741 36.75,-1705 116.5,-1705 116.5,-1741"/>
<text xml:space="preserve" text-anchor="middle" x="76.62" y="-1717.95" font-family="Times New Roman,serif" font-size="14.00">mo_catalog</text>
</g>
<!-- mo_cost_unit -->
<g id="node37" class="node">
<title>mo_cost_unit</title>
<polygon fill="none" stroke="black" points="121.75,-1795 31.5,-1795 31.5,-1759 121.75,-1759 121.75,-1795"/>
<text xml:space="preserve" text-anchor="middle" x="76.62" y="-1771.95" font-family="Times New Roman,serif" font-size="14.00">mo_cost_unit</text>
</g>
<!-- mo_prices_history -->
<g id="node38" class="node">
<title>mo_prices_history</title>
<polygon fill="none" stroke="black" points="135.25,-1849 18,-1849 18,-1813 135.25,-1813 135.25,-1849"/>
<text xml:space="preserve" text-anchor="middle" x="76.62" y="-1825.95" font-family="Times New Roman,serif" font-size="14.00">mo_prices_history</text>
</g>
<!-- opex_budget -->
<g id="node39" class="node">
<title>opex_budget</title>
<polygon fill="none" stroke="black" points="119.5,-949 33.75,-949 33.75,-913 119.5,-913 119.5,-949"/>
<text xml:space="preserve" text-anchor="middle" x="76.62" y="-925.95" font-family="Times New Roman,serif" font-size="14.00">opex_budget</text>
</g>
<!-- opex_budget&#45;&gt;elem_nodes -->
<g id="edge11" class="edge">
<title>opex_budget&#45;&gt;elem_nodes</title>
<path fill="none" stroke="black" d="M119.73,-938.59C169.13,-947.5 250.98,-962.26 303.91,-971.81"/>
<polygon fill="black" stroke="black" points="303.12,-975.22 313.58,-973.55 304.36,-968.33 303.12,-975.22"/>
<text xml:space="preserve" text-anchor="middle" x="218.5" y="-968.03" font-family="Times New Roman,serif" font-size="14.00">elem_id</text>
</g>
<!-- cc_nodes -->
<g id="node74" class="node">
<title>cc_nodes</title>
<polygon fill="none" stroke="black" points="389,-919 322.75,-919 322.75,-883 389,-883 389,-919"/>
<text xml:space="preserve" text-anchor="middle" x="355.88" y="-895.95" font-family="Times New Roman,serif" font-size="14.00">cc_nodes</text>
</g>
<!-- opex_budget&#45;&gt;cc_nodes -->
<g id="edge12" class="edge">
<title>opex_budget&#45;&gt;cc_nodes</title>
<path fill="none" stroke="black" d="M119.73,-926.44C171.42,-920.85 258.64,-911.41 311.08,-905.74"/>
<polygon fill="black" stroke="black" points="311.29,-909.24 320.85,-904.68 310.53,-902.28 311.29,-909.24"/>
<text xml:space="preserve" text-anchor="middle" x="218.5" y="-923.64" font-family="Times New Roman,serif" font-size="14.00">cc_id</text>
</g>
<!-- opex_cycle_batches -->
<g id="node40" class="node">
<title>opex_cycle_batches</title>
<polygon fill="none" stroke="black" points="139,-2017 14.25,-2017 14.25,-1981 139,-1981 139,-2017"/>
<text xml:space="preserve" text-anchor="middle" x="76.62" y="-1993.95" font-family="Times New Roman,serif" font-size="14.00">opex_cycle_batches</text>
</g>
<!-- opex_cycle_defs -->
<g id="node41" class="node">
<title>opex_cycle_defs</title>
<polygon fill="none" stroke="black" points="409.25,-2057 302.5,-2057 302.5,-2021 409.25,-2021 409.25,-2057"/>
<text xml:space="preserve" text-anchor="middle" x="355.88" y="-2033.95" font-family="Times New Roman,serif" font-size="14.00">opex_cycle_defs</text>
</g>
<!-- opex_cycle_batches&#45;&gt;opex_cycle_defs -->
<g id="edge13" class="edge">
<title>opex_cycle_batches&#45;&gt;opex_cycle_defs</title>
<path fill="none" stroke="black" d="M139.11,-2006.92C175.89,-2011.75 223.53,-2018.21 265.75,-2024.5 273.85,-2025.71 282.36,-2027.03 290.77,-2028.36"/>
<polygon fill="black" stroke="black" points="290.21,-2031.82 300.63,-2029.94 291.31,-2024.9 290.21,-2031.82"/>
<text xml:space="preserve" text-anchor="middle" x="218.5" y="-2027.7" font-family="Times New Roman,serif" font-size="14.00">cycle_id</text>
</g>
<!-- transfer_batches -->
<g id="node69" class="node">
<title>transfer_batches</title>
<polygon fill="none" stroke="black" points="408.12,-1957 303.62,-1957 303.62,-1921 408.12,-1921 408.12,-1957"/>
<text xml:space="preserve" text-anchor="middle" x="355.88" y="-1933.95" font-family="Times New Roman,serif" font-size="14.00">transfer_batches</text>
</g>
<!-- opex_cycle_batches&#45;&gt;transfer_batches -->
<g id="edge14" class="edge">
<title>opex_cycle_batches&#45;&gt;transfer_batches</title>
<path fill="none" stroke="black" d="M139.16,-1985.68C184.7,-1975.83 246.51,-1962.45 292.3,-1952.54"/>
<polygon fill="black" stroke="black" points="292.77,-1956.02 301.8,-1950.49 291.29,-1949.18 292.77,-1956.02"/>
<text xml:space="preserve" text-anchor="middle" x="218.5" y="-1981.08" font-family="Times New Roman,serif" font-size="14.00">batch_id</text>
</g>
<!-- opex_cycle_rules -->
<g id="node42" class="node">
<title>opex_cycle_rules</title>
<polygon fill="none" stroke="black" points="131.88,-2077 21.38,-2077 21.38,-2041 131.88,-2041 131.88,-2077"/>
<text xml:space="preserve" text-anchor="middle" x="76.62" y="-2053.95" font-family="Times New Roman,serif" font-size="14.00">opex_cycle_rules</text>
</g>
<!-- opex_cycle_rules&#45;&gt;opex_cycle_defs -->
<g id="edge15" class="edge">
<title>opex_cycle_rules&#45;&gt;opex_cycle_defs</title>
<path fill="none" stroke="black" d="M132.07,-2055.07C177.77,-2051.78 243.1,-2047.06 291.21,-2043.59"/>
<polygon fill="black" stroke="black" points="291.2,-2047.1 300.92,-2042.89 290.7,-2040.12 291.2,-2047.1"/>
<text xml:space="preserve" text-anchor="middle" x="218.5" y="-2055.16" font-family="Times New Roman,serif" font-size="14.00">cycle_id</text>
</g>
<!-- opex_staging -->
<g id="node43" class="node">
<title>opex_staging</title>
<polygon fill="none" stroke="black" points="120.62,-889 32.62,-889 32.62,-853 120.62,-853 120.62,-889"/>
<text xml:space="preserve" text-anchor="middle" x="76.62" y="-865.95" font-family="Times New Roman,serif" font-size="14.00">opex_staging</text>
</g>
<!-- opex_staging&#45;&gt;elem_nodes -->
<g id="edge16" class="edge">
<title>opex_staging&#45;&gt;elem_nodes</title>
<path fill="none" stroke="black" d="M120.96,-864.22C162,-860.21 223.46,-860.73 265.75,-890.5 280.87,-901.14 272,-913.73 283.75,-928 292.47,-938.59 303.73,-948.22 314.71,-956.29"/>
<polygon fill="black" stroke="black" points="312.37,-958.92 322.56,-961.81 316.4,-953.19 312.37,-958.92"/>
<text xml:space="preserve" text-anchor="middle" x="218.5" y="-893.7" font-family="Times New Roman,serif" font-size="14.00">mapped_elem_id</text>
</g>
<!-- opex_staging&#45;&gt;cc_nodes -->
<g id="edge17" class="edge">
<title>opex_staging&#45;&gt;cc_nodes</title>
<path fill="none" stroke="black" d="M120.96,-853.84C159.59,-841.03 217.33,-828.03 265.75,-842.5 287.89,-849.12 309.64,-863.2 326.11,-875.89"/>
<polygon fill="black" stroke="black" points="323.5,-878.29 333.5,-881.79 327.87,-872.82 323.5,-878.29"/>
<text xml:space="preserve" text-anchor="middle" x="218.5" y="-845.7" font-family="Times New Roman,serif" font-size="14.00">cc_id</text>
</g>
<!-- ovh_bases_year -->
<g id="node44" class="node">
<title>ovh_bases_year</title>
<polygon fill="none" stroke="black" points="127.75,-2131 25.5,-2131 25.5,-2095 127.75,-2095 127.75,-2131"/>
<text xml:space="preserve" text-anchor="middle" x="76.62" y="-2107.95" font-family="Times New Roman,serif" font-size="14.00">ovh_bases_year</text>
</g>
<!-- ovh_cost_unit -->
<g id="node45" class="node">
<title>ovh_cost_unit</title>
<polygon fill="none" stroke="black" points="122.88,-2185 30.38,-2185 30.38,-2149 122.88,-2149 122.88,-2185"/>
<text xml:space="preserve" text-anchor="middle" x="76.62" y="-2161.95" font-family="Times New Roman,serif" font-size="14.00">ovh_cost_unit</text>
</g>
<!-- ovh_costs -->
<g id="node46" class="node">
<title>ovh_costs</title>
<polygon fill="none" stroke="black" points="111.62,-2239 41.62,-2239 41.62,-2203 111.62,-2203 111.62,-2239"/>
<text xml:space="preserve" text-anchor="middle" x="76.62" y="-2215.95" font-family="Times New Roman,serif" font-size="14.00">ovh_costs</text>
</g>
<!-- ovh_flat -->
<g id="node47" class="node">
<title>ovh_flat</title>
<polygon fill="none" stroke="black" points="107.12,-2293 46.12,-2293 46.12,-2257 107.12,-2257 107.12,-2293"/>
<text xml:space="preserve" text-anchor="middle" x="76.62" y="-2269.95" font-family="Times New Roman,serif" font-size="14.00">ovh_flat</text>
</g>
<!-- ovh_nodes -->
<g id="node48" class="node">
<title>ovh_nodes</title>
<polygon fill="none" stroke="black" points="113.88,-2347 39.38,-2347 39.38,-2311 113.88,-2311 113.88,-2347"/>
<text xml:space="preserve" text-anchor="middle" x="76.62" y="-2323.95" font-family="Times New Roman,serif" font-size="14.00">ovh_nodes</text>
</g>
<!-- ovh_tariffs -->
<g id="node49" class="node">
<title>ovh_tariffs</title>
<polygon fill="none" stroke="black" points="114.25,-2401 39,-2401 39,-2365 114.25,-2365 114.25,-2401"/>
<text xml:space="preserve" text-anchor="middle" x="76.62" y="-2377.95" font-family="Times New Roman,serif" font-size="14.00">ovh_tariffs</text>
</g>
<!-- ovh_tariffs_new -->
<g id="node50" class="node">
<title>ovh_tariffs_new</title>
<polygon fill="none" stroke="black" points="128.88,-2455 24.38,-2455 24.38,-2419 128.88,-2419 128.88,-2455"/>
<text xml:space="preserve" text-anchor="middle" x="76.62" y="-2431.95" font-family="Times New Roman,serif" font-size="14.00">ovh_tariffs_new</text>
</g>
<!-- personnel_monthly -->
<g id="node51" class="node">
<title>personnel_monthly</title>
<polygon fill="none" stroke="black" points="137.12,-2509 16.12,-2509 16.12,-2473 137.12,-2473 137.12,-2509"/>
<text xml:space="preserve" text-anchor="middle" x="76.62" y="-2485.95" font-family="Times New Roman,serif" font-size="14.00">personnel_monthly</text>
</g>
<!-- price_scenarios -->
<g id="node52" class="node">
<title>price_scenarios</title>
<polygon fill="none" stroke="black" points="126.62,-2563 26.62,-2563 26.62,-2527 126.62,-2527 126.62,-2563"/>
<text xml:space="preserve" text-anchor="middle" x="76.62" y="-2539.95" font-family="Times New Roman,serif" font-size="14.00">price_scenarios</text>
</g>
<!-- prod_budget -->
<g id="node53" class="node">
<title>prod_budget</title>
<polygon fill="none" stroke="black" points="118.75,-2617 34.5,-2617 34.5,-2581 118.75,-2581 118.75,-2617"/>
<text xml:space="preserve" text-anchor="middle" x="76.62" y="-2593.95" font-family="Times New Roman,serif" font-size="14.00">prod_budget</text>
</g>
<!-- rm_price_load -->
<g id="node54" class="node">
<title>rm_price_load</title>
<polygon fill="none" stroke="black" points="124.38,-2671 28.88,-2671 28.88,-2635 124.38,-2635 124.38,-2671"/>
<text xml:space="preserve" text-anchor="middle" x="76.62" y="-2647.95" font-family="Times New Roman,serif" font-size="14.00">rm_price_load</text>
</g>
<!-- rm_prices -->
<g id="node55" class="node">
<title>rm_prices</title>
<polygon fill="none" stroke="black" points="112,-2725 41.25,-2725 41.25,-2689 112,-2689 112,-2725"/>
<text xml:space="preserve" text-anchor="middle" x="76.62" y="-2701.95" font-family="Times New Roman,serif" font-size="14.00">rm_prices</text>
</g>
<!-- routing_flat -->
<g id="node56" class="node">
<title>routing_flat</title>
<polygon fill="none" stroke="black" points="116.5,-2779 36.75,-2779 36.75,-2743 116.5,-2743 116.5,-2779"/>
<text xml:space="preserve" text-anchor="middle" x="76.62" y="-2755.95" font-family="Times New Roman,serif" font-size="14.00">routing_flat</text>
</g>
<!-- routing_nodes -->
<g id="node57" class="node">
<title>routing_nodes</title>
<polygon fill="none" stroke="black" points="123.25,-2833 30,-2833 30,-2797 123.25,-2797 123.25,-2833"/>
<text xml:space="preserve" text-anchor="middle" x="76.62" y="-2809.95" font-family="Times New Roman,serif" font-size="14.00">routing_nodes</text>
</g>
<!-- routing_operations -->
<g id="node58" class="node">
<title>routing_operations</title>
<polygon fill="none" stroke="black" points="135.62,-2887 17.62,-2887 17.62,-2851 135.62,-2851 135.62,-2887"/>
<text xml:space="preserve" text-anchor="middle" x="76.62" y="-2863.95" font-family="Times New Roman,serif" font-size="14.00">routing_operations</text>
</g>
<!-- routing_tree -->
<g id="node59" class="node">
<title>routing_tree</title>
<polygon fill="none" stroke="black" points="117.62,-2941 35.62,-2941 35.62,-2905 117.62,-2905 117.62,-2941"/>
<text xml:space="preserve" text-anchor="middle" x="76.62" y="-2917.95" font-family="Times New Roman,serif" font-size="14.00">routing_tree</text>
</g>
<!-- routings -->
<g id="node60" class="node">
<title>routings</title>
<polygon fill="none" stroke="black" points="106.75,-2995 46.5,-2995 46.5,-2959 106.75,-2959 106.75,-2995"/>
<text xml:space="preserve" text-anchor="middle" x="76.62" y="-2971.95" font-family="Times New Roman,serif" font-size="14.00">routings</text>
</g>
<!-- rule_scope -->
<g id="node61" class="node">
<title>rule_scope</title>
<polygon fill="none" stroke="black" points="113.88,-3049 39.38,-3049 39.38,-3013 113.88,-3013 113.88,-3049"/>
<text xml:space="preserve" text-anchor="middle" x="76.62" y="-3025.95" font-family="Times New Roman,serif" font-size="14.00">rule_scope</text>
</g>
<!-- rules -->
<g id="node63" class="node">
<title>rules</title>
<polygon fill="none" stroke="black" points="382.88,-3049 328.88,-3049 328.88,-3013 382.88,-3013 382.88,-3049"/>
<text xml:space="preserve" text-anchor="middle" x="355.88" y="-3025.95" font-family="Times New Roman,serif" font-size="14.00">rules</text>
</g>
<!-- rule_scope&#45;&gt;rules -->
<g id="edge18" class="edge">
<title>rule_scope&#45;&gt;rules</title>
<path fill="none" stroke="black" d="M114.16,-3031C166.92,-3031 263.98,-3031 317.31,-3031"/>
<polygon fill="black" stroke="black" points="317.11,-3034.5 327.11,-3031 317.11,-3027.5 317.11,-3034.5"/>
<text xml:space="preserve" text-anchor="middle" x="218.5" y="-3034.2" font-family="Times New Roman,serif" font-size="14.00">rule_id</text>
</g>
<!-- rule_sets -->
<g id="node62" class="node">
<title>rule_sets</title>
<polygon fill="none" stroke="black" points="609,-3049 545,-3049 545,-3013 609,-3013 609,-3049"/>
<text xml:space="preserve" text-anchor="middle" x="577" y="-3025.95" font-family="Times New Roman,serif" font-size="14.00">rule_sets</text>
</g>
<!-- rules&#45;&gt;rule_sets -->
<g id="edge19" class="edge">
<title>rules&#45;&gt;rule_sets</title>
<path fill="none" stroke="black" d="M383.31,-3031C420.51,-3031 488.72,-3031 533.2,-3031"/>
<polygon fill="black" stroke="black" points="533.01,-3034.5 543.01,-3031 533.01,-3027.5 533.01,-3034.5"/>
<text xml:space="preserve" text-anchor="middle" x="476" y="-3034.2" font-family="Times New Roman,serif" font-size="14.00">rule_set_id</text>
</g>
<!-- run_history -->
<g id="node64" class="node">
<title>run_history</title>
<polygon fill="none" stroke="black" points="115.75,-3103 37.5,-3103 37.5,-3067 115.75,-3067 115.75,-3103"/>
<text xml:space="preserve" text-anchor="middle" x="76.62" y="-3079.95" font-family="Times New Roman,serif" font-size="14.00">run_history</text>
</g>
<!-- run_log -->
<g id="node65" class="node">
<title>run_log</title>
<polygon fill="none" stroke="black" points="105.62,-3157 47.62,-3157 47.62,-3121 105.62,-3121 105.62,-3157"/>
<text xml:space="preserve" text-anchor="middle" x="76.62" y="-3133.95" font-family="Times New Roman,serif" font-size="14.00">run_log</text>
</g>
<!-- schema_version -->
<g id="node66" class="node">
<title>schema_version</title>
<polygon fill="none" stroke="black" points="128.5,-3211 24.75,-3211 24.75,-3175 128.5,-3175 128.5,-3211"/>
<text xml:space="preserve" text-anchor="middle" x="76.62" y="-3187.95" font-family="Times New Roman,serif" font-size="14.00">schema_version</text>
</g>
<!-- scrap_cost_unit -->
<g id="node67" class="node">
<title>scrap_cost_unit</title>
<polygon fill="none" stroke="black" points="127,-3265 26.25,-3265 26.25,-3229 127,-3229 127,-3265"/>
<text xml:space="preserve" text-anchor="middle" x="76.62" y="-3241.95" font-family="Times New Roman,serif" font-size="14.00">scrap_cost_unit</text>
</g>
<!-- sqlite_sequence -->
<g id="node68" class="node">
<title>sqlite_sequence</title>
<polygon fill="none" stroke="black" points="127.38,-3319 25.88,-3319 25.88,-3283 127.38,-3283 127.38,-3319"/>
<text xml:space="preserve" text-anchor="middle" x="76.62" y="-3295.95" font-family="Times New Roman,serif" font-size="14.00">sqlite_sequence</text>
</g>
<!-- transfer_rules -->
<g id="node73" class="node">
<title>transfer_rules</title>
<polygon fill="none" stroke="black" points="622.12,-1927 531.88,-1927 531.88,-1891 622.12,-1891 622.12,-1927"/>
<text xml:space="preserve" text-anchor="middle" x="577" y="-1903.95" font-family="Times New Roman,serif" font-size="14.00">transfer_rules</text>
</g>
<!-- transfer_batches&#45;&gt;transfer_rules -->
<g id="edge20" class="edge">
<title>transfer_batches&#45;&gt;transfer_rules</title>
<path fill="none" stroke="black" d="M408.53,-1931.93C442.18,-1927.32 486.05,-1921.31 520.45,-1916.6"/>
<polygon fill="black" stroke="black" points="520.79,-1920.09 530.23,-1915.27 519.84,-1913.16 520.79,-1920.09"/>
<text xml:space="preserve" text-anchor="middle" x="476" y="-1929.89" font-family="Times New Roman,serif" font-size="14.00">rule_id</text>
</g>
<!-- transfer_opex_items -->
<g id="node70" class="node">
<title>transfer_opex_items</title>
<polygon fill="none" stroke="black" points="140.12,-1957 13.12,-1957 13.12,-1921 140.12,-1921 140.12,-1957"/>
<text xml:space="preserve" text-anchor="middle" x="76.62" y="-1933.95" font-family="Times New Roman,serif" font-size="14.00">transfer_opex_items</text>
</g>
<!-- transfer_opex_items&#45;&gt;transfer_batches -->
<g id="edge21" class="edge">
<title>transfer_opex_items&#45;&gt;transfer_batches</title>
<path fill="none" stroke="black" d="M140.54,-1939C185.8,-1939 246.61,-1939 291.89,-1939"/>
<polygon fill="black" stroke="black" points="291.83,-1942.5 301.83,-1939 291.83,-1935.5 291.83,-1942.5"/>
<text xml:space="preserve" text-anchor="middle" x="218.5" y="-1942.2" font-family="Times New Roman,serif" font-size="14.00">batch_id</text>
</g>
<!-- transfer_personnel_items -->
<g id="node71" class="node">
<title>transfer_personnel_items</title>
<polygon fill="none" stroke="black" points="153.25,-1903 0,-1903 0,-1867 153.25,-1867 153.25,-1903"/>
<text xml:space="preserve" text-anchor="middle" x="76.62" y="-1879.95" font-family="Times New Roman,serif" font-size="14.00">transfer_personnel_items</text>
</g>
<!-- transfer_personnel_items&#45;&gt;transfer_batches -->
<g id="edge22" class="edge">
<title>transfer_personnel_items&#45;&gt;transfer_batches</title>
<path fill="none" stroke="black" d="M153.31,-1897.59C187.7,-1903.54 228.86,-1910.98 265.75,-1918.5 274.28,-1920.24 283.25,-1922.17 292.07,-1924.14"/>
<polygon fill="black" stroke="black" points="291.13,-1927.52 301.65,-1926.31 292.67,-1920.69 291.13,-1927.52"/>
<text xml:space="preserve" text-anchor="middle" x="218.5" y="-1921.7" font-family="Times New Roman,serif" font-size="14.00">batch_id</text>
</g>
<!-- transfer_rule_recipients -->
<g id="node72" class="node">
<title>transfer_rule_recipients</title>
<polygon fill="none" stroke="black" points="428,-1903 283.75,-1903 283.75,-1867 428,-1867 428,-1903"/>
<text xml:space="preserve" text-anchor="middle" x="355.88" y="-1879.95" font-family="Times New Roman,serif" font-size="14.00">transfer_rule_recipients</text>
</g>
<!-- transfer_rule_recipients&#45;&gt;transfer_rules -->
<g id="edge23" class="edge">
<title>transfer_rule_recipients&#45;&gt;transfer_rules</title>
<path fill="none" stroke="black" d="M428.4,-1886.74C453.07,-1887.96 480.83,-1890.02 506,-1893.5 510.65,-1894.14 515.44,-1894.93 520.24,-1895.81"/>
<polygon fill="black" stroke="black" points="519.41,-1899.21 529.9,-1897.71 520.76,-1892.35 519.41,-1899.21"/>
<text xml:space="preserve" text-anchor="middle" x="476" y="-1896.7" font-family="Times New Roman,serif" font-size="14.00">rule_id</text>
</g>
</g>
</svg>
